<svg xmlns="http://www.w3.org/2000/svg" width="35.868" height="21.958" viewBox="0 0 35.868 21.958">
  <g id="backspace-fill" transform="translate(0 -4.25)">
    <path id="Path_272" data-name="Path 272" d="M35.868,7.979A3.729,3.729,0,0,0,32.139,4.25H12.311a3.729,3.729,0,0,0-2.832,1.3L.449,14.431a1.864,1.864,0,0,0,0,2.427l9.029,8.048a3.729,3.729,0,0,0,2.832,1.3H32.139a3.729,3.729,0,0,0,3.729-3.729V7.979ZM15.839,11.642a.933.933,0,0,1,1.318-1.32l4,4,4-4a.933.933,0,0,1,1.318,1.32l-4,4,4,4a.933.933,0,0,1-1.318,1.32l-4-4-4,4a.933.933,0,0,1-1.318-1.32l4-4Z" transform="translate(0)"/>
  </g>
</svg>
