<svg id="Component_6_1" data-name="Component 6 – 1" xmlns="http://www.w3.org/2000/svg" width="43.704" height="19.025" viewBox="0 0 43.704 19.025">
  <path id="cars" d="M33.228.334h4.624c1.423,0,2.241,1.206,2.586,2.586l.818,3.347.477-.9c2.472-.142,2.692,1.295.078,2.532l.434.64c1.721,1.778,1.558,3.532,1.291,7.9v1.423a.807.807,0,0,1-.807.807H39.275a.807.807,0,0,1-.807-.807v-.626h-1.28v-.74c.064-1.039.121-1.953.149-2.771l2.038-.018a1.38,1.38,0,0,0,.686-.189,1.174,1.174,0,0,0,.416-.462l.331-.8c.245-.626.05-.928-.672-.85l-2.792.338A7.067,7.067,0,0,0,36.4,8.376a4.126,4.126,0,0,0,.5-.679h0a3.753,3.753,0,0,0,.26-.558h2.9l-.836-3.471c-.228-1.067-.886-1.974-1.974-1.974H33.787A7.746,7.746,0,0,0,33.228.334ZM11.12,7.732c-2.49-1.259-2.194-2.664.3-2.518l.558,1.046L13.123,2.7C13.574,1.277,14.328,0,15.8,0h13c1.476,0,2.322,1.252,2.682,2.682l.875,3.468.5-.935c2.561-.149,2.792,1.341.078,2.625l.441.676c1.778,1.832,1.615,3.66,1.337,8.18v1.487a.839.839,0,0,1-.836.839H30.291a.839.839,0,0,1-.836-.839v-.669h-15.2v.672a.839.839,0,0,1-.839.839H9.858a.839.839,0,0,1-.839-.839V16.122c-.27-3.471-.654-6.6,2.109-8.39Zm4.567,4.119-3.176-.4c-.75-.082-.953.235-.711.878l.356.836a1.2,1.2,0,0,0,.427.477,1.455,1.455,0,0,0,.711.2l2.845.021c.683,0,.978-.274.765-.9a1.529,1.529,0,0,0-1.209-1.106Zm12.331,0,3.176-.4c.747-.082.95.235.711.878l-.359.832a1.2,1.2,0,0,1-.43.477,1.444,1.444,0,0,1-.711.2l-2.845.021c-.686,0-.982-.274-.768-.9A1.533,1.533,0,0,1,28,11.847Zm-14.86-4.8H31.077l-.846-3.6c-.256-1.1-.939-2.027-2.063-2.027H16.292c-1.124,0-1.711.957-2.045,2.027l-1.088,3.6ZM11.433.334H5.856C4.434.334,3.616,1.54,3.271,2.92L2.435,6.267l-.477-.9C-.514,5.221-.734,6.658,1.88,7.9l-.423.64C-.265,10.314-.1,12.093.166,16.45v1.423a.807.807,0,0,0,.807.807H4.427a.807.807,0,0,0,.807-.807v-.64H6.521v-1.1L6.5,15.87c-.057-.74-.117-1.462-.149-2.166l-2.038-.018a1.38,1.38,0,0,1-.683-.171,1.174,1.174,0,0,1-.43-.48l-.331-.8c-.231-.626-.025-.928.686-.85l2.8.356A7.8,7.8,0,0,1,7.492,7.878c-.06-.089-.11-.178-.16-.263a4.037,4.037,0,0,1-.221-.48H3.662L4.5,3.663c.228-1.067.886-1.974,1.974-1.974h4.375A9.486,9.486,0,0,1,11.433.334Z" transform="translate(0.002)" fill="#ff9f34"/>
  <path id="cars-2" data-name="cars" d="M33.228.334h4.624c1.423,0,2.241,1.206,2.586,2.586l.818,3.347.477-.9c2.472-.142,2.692,1.295.078,2.532l.434.64c1.721,1.778,1.558,3.532,1.291,7.9v1.423a.807.807,0,0,1-.807.807H39.275a.807.807,0,0,1-.807-.807v-.626h-1.28v-.74c.064-1.039.121-1.953.149-2.771l2.038-.018a1.38,1.38,0,0,0,.686-.189,1.174,1.174,0,0,0,.416-.462l.331-.8c.245-.626.05-.928-.672-.85l-2.792.338A7.067,7.067,0,0,0,36.4,8.376a4.126,4.126,0,0,0,.5-.679h0a3.753,3.753,0,0,0,.26-.558h2.9l-.836-3.471c-.228-1.067-.886-1.974-1.974-1.974H33.787A7.746,7.746,0,0,0,33.228.334ZM11.12,7.732c-2.49-1.259-2.194-2.664.3-2.518l.558,1.046L13.123,2.7C13.574,1.277,14.328,0,15.8,0h13c1.476,0,2.322,1.252,2.682,2.682l.875,3.468.5-.935c2.561-.149,2.792,1.341.078,2.625l.441.676c1.778,1.832,1.615,3.66,1.337,8.18v1.487a.839.839,0,0,1-.836.839H30.291a.839.839,0,0,1-.836-.839v-.669h-15.2v.672a.839.839,0,0,1-.839.839H9.858a.839.839,0,0,1-.839-.839V16.122c-.27-3.471-.654-6.6,2.109-8.39Zm4.567,4.119-3.176-.4c-.75-.082-.953.235-.711.878l.356.836a1.2,1.2,0,0,0,.427.477,1.455,1.455,0,0,0,.711.2l2.845.021c.683,0,.978-.274.765-.9a1.529,1.529,0,0,0-1.209-1.106Zm12.331,0,3.176-.4c.747-.082.95.235.711.878l-.359.832a1.2,1.2,0,0,1-.43.477,1.444,1.444,0,0,1-.711.2l-2.845.021c-.686,0-.982-.274-.768-.9A1.533,1.533,0,0,1,28,11.847Zm-14.86-4.8H31.077l-.846-3.6c-.256-1.1-.939-2.027-2.063-2.027H16.292c-1.124,0-1.711.957-2.045,2.027l-1.088,3.6ZM11.433.334H5.856C4.434.334,3.616,1.54,3.271,2.92L2.435,6.267l-.477-.9C-.514,5.221-.734,6.658,1.88,7.9l-.423.64C-.265,10.314-.1,12.093.166,16.45v1.423a.807.807,0,0,0,.807.807H4.427a.807.807,0,0,0,.807-.807v-.64H6.521v-1.1L6.5,15.87c-.057-.74-.117-1.462-.149-2.166l-2.038-.018a1.38,1.38,0,0,1-.683-.171,1.174,1.174,0,0,1-.43-.48l-.331-.8c-.231-.626-.025-.928.686-.85l2.8.356A7.8,7.8,0,0,1,7.492,7.878c-.06-.089-.11-.178-.16-.263a4.037,4.037,0,0,1-.221-.48H3.662L4.5,3.663c.228-1.067.886-1.974,1.974-1.974h4.375A9.486,9.486,0,0,1,11.433.334Z" transform="translate(0.002)" fill="#f25f29"/>
  <path id="cars-3" data-name="cars" d="M33.228.94h4.624c1.423,0,2.241,1.206,2.586,2.586l.818,3.347.477-.9c2.472-.142,2.692,1.295.078,2.532l.434.64c1.721,1.778,1.558,3.532,1.291,7.9v1.423a.807.807,0,0,1-.807.807H39.275a.807.807,0,0,1-.807-.807v-.626h-1.28V17.1c.064-1.039.121-1.953.149-2.771l2.038-.018a1.38,1.38,0,0,0,.686-.189,1.174,1.174,0,0,0,.416-.462l.331-.8c.245-.626.05-.928-.672-.85l-2.792.338A7.067,7.067,0,0,0,36.4,8.982a4.126,4.126,0,0,0,.5-.679h0a3.753,3.753,0,0,0,.26-.558h2.9l-.836-3.471C38.99,3.206,38.332,2.3,37.244,2.3H33.787A7.746,7.746,0,0,0,33.228.94Zm-21.8,0H5.856C4.434.94,3.616,2.146,3.271,3.526L2.435,6.873l-.477-.9C-.514,5.827-.734,7.264,1.88,8.5l-.423.64C-.265,10.92-.1,12.7.166,17.055v1.423a.807.807,0,0,0,.807.807H4.427a.807.807,0,0,0,.807-.807v-.64H6.521v-1.1L6.5,16.476c-.057-.74-.117-1.462-.149-2.166l-2.038-.018a1.38,1.38,0,0,1-.683-.171,1.174,1.174,0,0,1-.43-.48l-.331-.8c-.231-.626-.025-.928.686-.85l2.8.356A7.8,7.8,0,0,1,7.492,8.484c-.06-.089-.11-.178-.16-.263a4.037,4.037,0,0,1-.221-.48H3.662L4.5,4.269C4.725,3.2,5.383,2.3,6.472,2.3h4.375A9.486,9.486,0,0,1,11.433.94Z" transform="translate(0.002 -0.6)"/>
  <path id="cars-4" data-name="cars" d="M33.228.94h4.624c1.423,0,2.241,1.206,2.586,2.586l.818,3.347.477-.9c2.472-.142,2.692,1.295.078,2.532l.434.64c1.721,1.778,1.558,3.532,1.291,7.9v1.423a.807.807,0,0,1-.807.807H39.275a.807.807,0,0,1-.807-.807v-.626h-1.28V17.1c.064-1.039.121-1.953.149-2.771l2.038-.018a1.38,1.38,0,0,0,.686-.189,1.174,1.174,0,0,0,.416-.462l.331-.8c.245-.626.05-.928-.672-.85l-2.792.338A7.067,7.067,0,0,0,36.4,8.982a4.126,4.126,0,0,0,.5-.679h0a3.753,3.753,0,0,0,.26-.558h2.9l-.836-3.471C38.99,3.206,38.332,2.3,37.244,2.3H33.787A7.746,7.746,0,0,0,33.228.94Zm-21.8,0H5.856C4.434.94,3.616,2.146,3.271,3.526L2.435,6.873l-.477-.9C-.514,5.827-.734,7.264,1.88,8.5l-.423.64C-.265,10.92-.1,12.7.166,17.055v1.423a.807.807,0,0,0,.807.807H4.427a.807.807,0,0,0,.807-.807v-.64H6.521v-1.1L6.5,16.476c-.057-.74-.117-1.462-.149-2.166l-2.038-.018a1.38,1.38,0,0,1-.683-.171,1.174,1.174,0,0,1-.43-.48l-.331-.8c-.231-.626-.025-.928.686-.85l2.8.356A7.8,7.8,0,0,1,7.492,8.484c-.06-.089-.11-.178-.16-.263a4.037,4.037,0,0,1-.221-.48H3.662L4.5,4.269C4.725,3.2,5.383,2.3,6.472,2.3h4.375A9.486,9.486,0,0,1,11.433.94Z" transform="translate(0.002 -0.6)"/>
</svg>
