<svg id="Group_1309" data-name="Group 1309" xmlns="http://www.w3.org/2000/svg" width="57.949" height="57.949" viewBox="0 0 57.949 57.949">
  <g id="Path_18" data-name="Path 18" transform="translate(0 0)" fill="#fff">
    <path d="M 41.25155639648438 56.94864273071289 L 16.69705772399902 56.94864273071289 C 12.50421810150146 56.94864273071289 8.562348365783691 55.31586456298828 5.59755802154541 52.35108184814453 C 2.63277792930603 49.38629150390625 0.9999980330467224 45.44442367553711 0.9999980330467224 41.25158309936523 L 0.9999980330467224 16.69707298278809 C 0.9999980330467224 12.50423336029053 2.63277792930603 8.562353134155273 5.59755802154541 5.59756326675415 C 8.562348365783691 2.632783174514771 12.50421810150146 1.000003218650818 16.69705772399902 1.000003218650818 L 41.25155639648438 1.000003218650818 C 45.44439697265625 1.000003218650818 49.38626861572266 2.632783174514771 52.35105895996094 5.59756326675415 C 55.31583786010742 8.562353134155273 56.9486198425293 12.50423336029053 56.9486198425293 16.69707298278809 L 56.9486198425293 41.25158309936523 C 56.9486198425293 45.44442367553711 55.31583786010742 49.38629150390625 52.35105895996094 52.35108184814453 C 49.38626861572266 55.31586456298828 45.44439697265625 56.94864273071289 41.25155639648438 56.94864273071289 Z" stroke="none"/>
    <path d="M 16.69705963134766 2.000003814697266 C 12.77132797241211 2.000003814697266 9.080577850341797 3.528762817382812 6.304668426513672 6.304672241210938 C 3.528759002685547 9.080581665039062 1.999996185302734 12.77133178710938 1.999996185302734 16.69706344604492 L 1.999996185302734 41.25158309936523 C 1.999996185302734 45.17731475830078 3.528759002685547 48.86806488037109 6.304668426513672 51.64397430419922 C 9.080577850341797 54.41988372802734 12.77132797241211 55.94864273071289 16.69705963134766 55.94864273071289 L 41.25155639648438 55.94864273071289 C 45.17728805541992 55.94864273071289 48.86803817749023 54.41988372802734 51.64394760131836 51.64397430419922 C 54.41985702514648 48.86806488037109 55.9486198425293 45.17731475830078 55.9486198425293 41.25158309936523 L 55.9486198425293 16.69706344604492 C 55.9486198425293 12.77133178710938 54.41985702514648 9.080581665039062 51.64394760131836 6.304672241210938 C 48.86803817749023 3.528762817382812 45.17728805541992 2.000003814697266 41.25155639648438 2.000003814697266 L 16.69705963134766 2.000003814697266 M 16.69705963134766 3.814697265625e-06 L 41.25155639648438 3.814697265625e-06 C 50.47308731079102 3.814697265625e-06 57.9486198425293 7.475532531738281 57.9486198425293 16.69706344604492 L 57.9486198425293 41.25158309936523 C 57.9486198425293 50.47311401367188 50.47308731079102 57.94864273071289 41.25155639648438 57.94864273071289 L 16.69705963134766 57.94864273071289 C 7.475528717041016 57.94864273071289 -3.814697265625e-06 50.47311401367188 -3.814697265625e-06 41.25158309936523 L -3.814697265625e-06 16.69706344604492 C -3.814697265625e-06 7.475532531738281 7.475528717041016 3.814697265625e-06 16.69705963134766 3.814697265625e-06 Z" stroke="none" fill="#172026"/>
  </g>
  <g id="Component_7_1" data-name="Component 7 – 1" transform="translate(11.238 13.891)">
    <path id="Path_15" data-name="Path 15" d="M1314.2-740.776l5.366,4.9,4,4.355,5.288,5.249,4.16,3.888,1.4-1.555,2.722-5.327.428-4.9-1.478-4.938-3.072-3.771-4.51-2.605-5.327-.544-4.666,1.361-3.771,2.45Z" transform="translate(-1303.665 746.813)" fill="#f25f29"/>
    <path id="dish" d="M33.142,1.607a2.44,2.44,0,0,1,0,3.457,2.5,2.5,0,0,1-.673.478,2.612,2.612,0,0,1-.444.161,14.087,14.087,0,0,1,.947,1.464,13.759,13.759,0,0,1,.882,1.891h0a13.445,13.445,0,0,1,.416,8.283,17.2,17.2,0,0,1-4.656,7.717.693.693,0,0,1-.5.206h0a.707.707,0,0,1-.469-.178l-.031-.025L9.676,6.122a.7.7,0,0,1-.209-.5V5.6a.715.715,0,0,1,.206-.483.283.283,0,0,1,.051-.042,17.246,17.246,0,0,1,7.7-4.6A13.569,13.569,0,0,1,27.581,1.777a13.922,13.922,0,0,1,1.464.947,2.528,2.528,0,0,1,.161-.449,2.411,2.411,0,0,1,.475-.67,2.442,2.442,0,0,1,3.457,0ZM15.652,13.944a.375.375,0,0,1,.526-.057.362.362,0,0,1,.136.243.37.37,0,0,1-.076.283c-.741.93.848,1.931-.351,3.392h0a.367.367,0,0,1-.517.051h0a.37.37,0,0,1-.051-.514c.913-1.114-.721-2.041.345-3.392ZM22.4,26.964l-.2.2h10.4a.209.209,0,0,1,.209.209v2.482a.209.209,0,0,1-.209.209H.209A.209.209,0,0,1,0,29.851V27.369a.209.209,0,0,1,.209-.218h5.62l-.175-.187H5.588a1.272,1.272,0,0,1-.89-.447,1.433,1.433,0,0,1-.345-.936c0-.028,0-.059,0-.09a2.612,2.612,0,0,1,.088-.529,1.552,1.552,0,0,1,.647-.922A1.7,1.7,0,0,1,6.125,23.8a2.5,2.5,0,0,1,.444.071,10.23,10.23,0,0,1,1.854-2.923,8,8,0,0,1,2.646-1.919,7.149,7.149,0,0,1,4.257-.492,7.35,7.35,0,0,1,1.413.413,8.331,8.331,0,0,1,2.827,1.914,10.669,10.669,0,0,1,2.041,2.988,1.857,1.857,0,0,1,.961-.04,1.264,1.264,0,0,1,.749.54,2,2,0,0,1,.283,1.382,1.676,1.676,0,0,1-.645,1.156.365.365,0,0,1-.1.051.353.353,0,0,1-.09,0h-.339Zm-1.541-2.827a9.933,9.933,0,0,0-1.871-2.725,7.525,7.525,0,0,0-2.544-1.727,6.8,6.8,0,0,0-1.258-.373A6.6,6.6,0,0,0,13.9,19.2a6.332,6.332,0,0,0-1.278.15,6.547,6.547,0,0,0-1.233.4,7.2,7.2,0,0,0-2.366,1.7,9.346,9.346,0,0,0-1.682,2.609l.076.042.153.09a2.312,2.312,0,0,0,.741.334.8.8,0,0,0,.729-.283,2.081,2.081,0,0,1,.5-.39,1.281,1.281,0,0,1,.585-.155,1.546,1.546,0,0,1,.639.139,3.59,3.59,0,0,1,.743.461,1.071,1.071,0,0,0,.283.144,1.413,1.413,0,0,0,.345.062,1.131,1.131,0,0,0,.311-.031.636.636,0,0,0,.229-.107c.11-.088.223-.172.336-.249a3.319,3.319,0,0,1,.359-.212,2.081,2.081,0,0,1,.4-.144,1.51,1.51,0,0,1,.438-.045,1.436,1.436,0,0,1,1.159.611v.017a.661.661,0,0,0,.537.305,1.2,1.2,0,0,0,.848-.424h0a1.775,1.775,0,0,1,.893-.546,2.184,2.184,0,0,1,1.527.478,1.5,1.5,0,0,0,1.049.308,1.478,1.478,0,0,0,.633-.328ZM12.135,13.961a.37.37,0,0,1,.24-.144h0a.359.359,0,0,1,.263.068.365.365,0,0,1,.147.24h0a.362.362,0,0,1-.068.263c-.718.981.63,1.942-.336,3.375a.37.37,0,0,1-.235.153.353.353,0,0,1-.283-.054.367.367,0,0,1-.1-.512c.78-1.153-.678-1.979.353-3.392Zm-.13,6.425a.362.362,0,0,1,.254-.116.367.367,0,0,1,.283.616l-1,1.077a.367.367,0,0,1-.537-.5Zm3.633.5a.362.362,0,0,1-.1-.263.367.367,0,0,1,.116-.257.376.376,0,0,1,.263-.1.367.367,0,0,1,.257.116l1,1.077a.373.373,0,0,1,.1.263.369.369,0,0,1-.636.221l-1-1.077Zm-1.951,0h0a.353.353,0,0,1,.107-.246.362.362,0,0,1,.26-.1h0a.353.353,0,0,1,.246.107.362.362,0,0,1,.1.26v1.275a.367.367,0,0,1-.367.353h0a.367.367,0,0,1-.353-.367V20.9Zm7.633,3.884a2.171,2.171,0,0,1-.987.492,2.274,2.274,0,0,1-1.56-.449c-.885-.565-1.165-.305-1.473-.02h0a2.827,2.827,0,0,1-.54.424,1.648,1.648,0,0,1-.825.2,1.289,1.289,0,0,1-.712-.184,1.806,1.806,0,0,1-.418-.4h0a1.27,1.27,0,0,0-.235-.226.7.7,0,0,0-.37-.116.792.792,0,0,0-.229.025,1.2,1.2,0,0,0-.24.093,2.369,2.369,0,0,0-.283.164c-.093.065-.189.136-.283.212a1.414,1.414,0,0,1-.475.237,1.937,1.937,0,0,1-.565.065,2.081,2.081,0,0,1-.565-.107,1.724,1.724,0,0,1-.534-.277,2.9,2.9,0,0,0-.531-.342.865.865,0,0,0-.367-.1.529.529,0,0,0-.257.082,1.439,1.439,0,0,0-.283.232,2.194,2.194,0,0,1-.481.384,1.348,1.348,0,0,1-.458.167,1.5,1.5,0,0,1-.848-.082,5.193,5.193,0,0,1-.769-.393,2.239,2.239,0,0,0-.955-.325,1.032,1.032,0,0,0-.483.073.758.758,0,0,0-.342.314,1.413,1.413,0,0,0-.161.608.6.6,0,0,0,.588.7H22.589a1.131,1.131,0,0,0,.283-.678,1.21,1.21,0,0,0-.164-.783.613.613,0,0,0-.517-.266,1.852,1.852,0,0,0-.871.26ZM13.9,13.958a.365.365,0,0,1,.659.158.353.353,0,0,1-.065.283c-.808,1.105.775,1.905-.356,3.384a.365.365,0,0,1-.243.139.356.356,0,0,1-.283-.071.382.382,0,0,1-.141-.243.37.37,0,0,1,.073-.283c.848-1.114-.752-1.874.339-3.392ZM11.2,5.639l17.92,17.914a15.43,15.43,0,0,0,3.833-6.731,12.062,12.062,0,0,0-.41-7.268h0a12.469,12.469,0,0,0-1.2-2.355,12.967,12.967,0,0,0-1.7-2.081,12.653,12.653,0,0,0-4.45-2.9,12.062,12.062,0,0,0-7.268-.41A15.353,15.353,0,0,0,11.2,5.639Zm5.069.565a.721.721,0,0,1-.529.045.71.71,0,0,1-.472-.885.718.718,0,0,1,.345-.418,10.855,10.855,0,0,1,2.261-.885,9.329,9.329,0,0,1,2.284-.305A9.691,9.691,0,0,1,22.417,4a11.873,11.873,0,0,1,2.261.769.707.707,0,0,1,.353.936h0a.707.707,0,0,1-.387.359.724.724,0,0,1-.543-.017h0a10.363,10.363,0,0,0-1.979-.673,8.26,8.26,0,0,0-1.959-.218,7.969,7.969,0,0,0-1.948.26,9.19,9.19,0,0,0-1.959.769h0Z" transform="translate(0.001 -0.018)"/>
  </g>
</svg>
