<svg xmlns="http://www.w3.org/2000/svg" width="24.999" height="25" viewBox="0 0 24.999 25">
  <path id="gearalt" d="M24.219,14.062h-2.49a8.98,8.98,0,0,1-1.611,3.882l1.538,1.563a.766.766,0,0,1,0,1.074l-1.074,1.074a.766.766,0,0,1-1.074,0l-1.562-1.538a8.98,8.98,0,0,1-3.882,1.611v2.49a.793.793,0,0,1-.782.782H11.719a.792.792,0,0,1-.781-.781v-2.49a8.98,8.98,0,0,1-3.882-1.611L5.493,21.656a.766.766,0,0,1-1.074,0L3.345,20.581a.766.766,0,0,1,0-1.074l1.538-1.562a8.98,8.98,0,0,1-1.611-3.882H.781a.751.751,0,0,1-.549-.232A.752.752,0,0,1,0,13.281V11.719a.751.751,0,0,1,.232-.549.751.751,0,0,1,.549-.232h2.49A9.15,9.15,0,0,1,4.883,7.056L3.344,5.517a.766.766,0,0,1,0-1.074l1.074-1.1a.766.766,0,0,1,1.074,0L7.055,4.908a9.222,9.222,0,0,1,3.882-1.635V.781a.751.751,0,0,1,.232-.549A.752.752,0,0,1,11.719,0h1.563a.751.751,0,0,1,.549.232.751.751,0,0,1,.232.549v2.49a9.222,9.222,0,0,1,3.882,1.635l1.563-1.562a.766.766,0,0,1,1.074,0l1.074,1.1a.766.766,0,0,1,0,1.074L20.117,7.055a9.146,9.146,0,0,1,1.611,3.882h2.49a.792.792,0,0,1,.781.781v1.563a.793.793,0,0,1-.781.782ZM12.5,6.25A6.061,6.061,0,0,0,8.069,8.081,6,6,0,0,0,6.226,12.5a6,6,0,0,0,1.843,4.419A6.061,6.061,0,0,0,12.5,18.75a6.061,6.061,0,0,0,4.431-1.831A6,6,0,0,0,18.774,12.5a6,6,0,0,0-1.843-4.419A6.061,6.061,0,0,0,12.5,6.25Z" fill="#f25f29"/>
</svg>
