<svg xmlns="http://www.w3.org/2000/svg" width="25.984" height="22.087" viewBox="0 0 25.984 22.087">
  <path id="kitchen-cooker" d="M5.947,26.788H5.6a2.6,2.6,0,0,1-2.6-2.6V8.6A2.6,2.6,0,0,1,5.6,6H26.386a2.6,2.6,0,0,1,2.6,2.6V24.189a2.6,2.6,0,0,1-2.6,2.6h-.348a2.6,2.6,0,0,1-4.5,0H10.447a2.6,2.6,0,0,1-4.5,0ZM5.6,8.6V24.189H26.386V8.6Zm2.6,7.8H23.788v5.2H8.2Zm0-5.2h6.5v2.6H8.2Zm5.2,6.5v1.3h5.2v-1.3Zm5.2-3.9a1.3,1.3,0,1,1,1.3-1.3A1.3,1.3,0,0,1,18.591,13.8Zm3.9,0a1.3,1.3,0,1,1,1.3-1.3A1.3,1.3,0,0,1,22.488,13.8Z" transform="translate(-3 -6)" fill="#f25f29"/>
</svg>
