<svg xmlns="http://www.w3.org/2000/svg" width="23.691" height="22" viewBox="0 0 23.691 22">
  <g id="language" transform="translate(-2.25 -3.375)">
    <path id="Path_1690" data-name="Path 1690" d="M29.758,26.451,25,14.923a1.164,1.164,0,0,0-2.151,0L18.088,26.451a1.164,1.164,0,0,0,2.151.888l.969-2.348h5.429l.969,2.347a1.163,1.163,0,1,0,2.15-.887Zm-7.589-3.787,1.754-4.249,1.754,4.249Z" transform="translate(-3.904 -2.684)" fill="#f25f29"/>
    <path id="Path_1691" data-name="Path 1691" d="M14.721,18.972a1.164,1.164,0,0,0-.259-1.624,15.181,15.181,0,0,1-1.93-1.837A27.279,27.279,0,0,0,16.3,7.923h1.707a1.164,1.164,0,1,0,0-2.327H11.875V4.539a1.164,1.164,0,1,0-2.327,0V5.6H3.414a1.164,1.164,0,1,0,0,2.327H13.845A25.231,25.231,0,0,1,11,13.653a19.942,19.942,0,0,1-2.283-3.642,1.164,1.164,0,0,0-2.146.9,22.2,22.2,0,0,0,2.8,4.438l.145.186A21.625,21.625,0,0,1,4.549,19.8a1.163,1.163,0,1,0,1.114,2.043,22.8,22.8,0,0,0,5.374-4.526A15.931,15.931,0,0,0,13.1,19.229a1.164,1.164,0,0,0,1.626-.259Z" fill="#f25f29"/>
  </g>
</svg>
