<svg xmlns="http://www.w3.org/2000/svg" width="22.109" height="22.109" viewBox="0 0 22.109 22.109">
  <g id="md-log-out" transform="translate(-3.375 -3.375)">
    <path id="Path_1692" data-name="Path 1692" d="M13.5,17.49H23.582l-2.318,2.376,1.59,1.589,5.1-5.1-5.1-5.1-1.648,1.589,2.376,2.376H13.5v2.274Z" transform="translate(-2.472 -1.922)" fill="#f25f29"/>
    <path id="Path_1693" data-name="Path 1693" d="M14.414,23.215a8.791,8.791,0,0,1-6.2-15,8.763,8.763,0,0,1,12.393-.011l1.61-1.61a11.735,11.735,0,0,0-1.472-1.233,11.062,11.062,0,1,0,1.468,16.9l-1.6-1.6a8.7,8.7,0,0,1-6.191,2.562Z" fill="#f25f29"/>
    <path id="Path_1694" data-name="Path 1694" d="M31.485,18.031l-.045-.045.045-.045.045.045Z" transform="translate(-6.851 -3.556)" fill="#f25f29"/>
  </g>
</svg>
