<svg xmlns="http://www.w3.org/2000/svg" xmlns:xlink="http://www.w3.org/1999/xlink" width="264.401" height="211.685" viewBox="0 0 264.401 211.685">
  <defs>
    <linearGradient id="linear-gradient" x1="0.105" y1="0.899" x2="0.928" y2="-0.041" gradientUnits="objectBoundingBox">
      <stop offset="0" stop-color="#ef8106"/>
      <stop offset="1" stop-color="#d53700"/>
    </linearGradient>
    <linearGradient id="linear-gradient-2" x1="0.276" y1="0.737" x2="1.034" gradientUnits="objectBoundingBox">
      <stop offset="0" stop-color="#f68522"/>
      <stop offset="1" stop-color="#ee4709"/>
    </linearGradient>
  </defs>
  <g id="Logo" transform="translate(-112.642 -320.702)">
    <g id="Group_1384" data-name="Group 1384" transform="translate(184.845 320.702)">
      <path id="Subtraction_6" data-name="Subtraction 6" d="M22.825,0A22.825,22.825,0,1,1,0,22.825,22.825,22.825,0,0,1,22.825,0Z" transform="translate(0 102.484)" fill="url(#linear-gradient)"/>
      <path id="Union_11" data-name="Union 11" d="M82.873,140.249,66.128,119.57a60.591,60.591,0,0,1-6.185.315A59.942,59.942,0,0,1,0,59.943V33.44A33.441,33.441,0,0,1,33.44,0h26.5a59.943,59.943,0,0,1,41.583,103.116l10.772,13.3a18.932,18.932,0,1,1-29.425,23.829Z" transform="translate(0.049 0)" fill="url(#linear-gradient-2)"/>
    </g>
    <path id="Path_36" data-name="Path 36" d="M-2085.865-569.422a9.9,9.9,0,0,0,4.1-2.717,11.958,11.958,0,0,0,2.861-8.152,12,12,0,0,0-2.861-8.2c-1.43-1.621-4.147-3.528-8.819-3.528h-10.489v35.374h5.53v-11.966h4.052l8.915,11.966h6.245Zm-9.678-4.148v-13.444h4.958a6.49,6.49,0,0,1,5.1,1.859,7.07,7.07,0,0,1,1.573,4.863,7.025,7.025,0,0,1-1.573,4.815,6.509,6.509,0,0,1-5.1,1.907Zm58.4,16.924h6.055l-15.351-37-15.4,37h6.1l3-7.58h12.586Zm-13.587-12.538,4.291-10.774,4.291,10.774Zm54.4.477a10.593,10.593,0,0,0-3.1-4.624c-.763-.715-1.812-1.716-2.67-2.574h0l-5.911-5.673c-1.478-1.43-1.526-2.527-1.335-3.194a3.245,3.245,0,0,1,2.574-2.05c1-.191,2.86-.191,4.672,2l4.339-3.48a11.922,11.922,0,0,0-4.815-3.576,9.414,9.414,0,0,0-5.244-.381,9.216,9.216,0,0,0-4.243,2,8.063,8.063,0,0,0-2.622,3.957,7.573,7.573,0,0,0,.1,4.481,10.086,10.086,0,0,0,2.718,4.243l4.338,4.1c.191.191,2.765,2.717,4.338,4.2,1,.953,2.1,2.384,1.621,4a4.683,4.683,0,0,1-3.718,2.956,5.435,5.435,0,0,1-3.242-.286,7.888,7.888,0,0,1-3.48-2.765l-4.386,3.432a13.989,13.989,0,0,0,5.864,4.529,11.471,11.471,0,0,0,4.2.763,10.883,10.883,0,0,0,2.145-.191,10.246,10.246,0,0,0,7.961-6.913A8.376,8.376,0,0,0-1996.333-568.706Zm35.994,0a10.593,10.593,0,0,0-3.1-4.624c-.763-.715-1.812-1.716-2.67-2.574h0l-5.912-5.673c-1.478-1.43-1.526-2.527-1.335-3.194a3.245,3.245,0,0,1,2.574-2.05c1-.191,2.861-.191,4.672,2l4.338-3.48a11.924,11.924,0,0,0-4.815-3.576,9.415,9.415,0,0,0-5.244-.381,9.217,9.217,0,0,0-4.243,2,8.063,8.063,0,0,0-2.622,3.957,7.573,7.573,0,0,0,.1,4.481,10.082,10.082,0,0,0,2.718,4.243l4.338,4.1c.191.191,2.765,2.717,4.338,4.2,1,.953,2.1,2.384,1.621,4a4.683,4.683,0,0,1-3.719,2.956,5.433,5.433,0,0,1-3.241-.286,7.888,7.888,0,0,1-3.48-2.765l-4.386,3.432a13.988,13.988,0,0,0,5.864,4.529,11.471,11.471,0,0,0,4.2.763,10.881,10.881,0,0,0,2.145-.191,10.246,10.246,0,0,0,7.962-6.913A8.38,8.38,0,0,0-1960.339-568.706Zm39.14,12.062h6.054l-15.351-37-15.4,37h6.1l3-7.58h12.586Zm-13.587-12.538,4.291-10.774,4.291,10.774Zm54.4.477a10.588,10.588,0,0,0-3.1-4.624c-.762-.715-1.812-1.716-2.67-2.574h0l-5.912-5.673c-1.478-1.43-1.526-2.527-1.335-3.194a3.246,3.246,0,0,1,2.574-2.05c1-.191,2.861-.191,4.672,2l4.338-3.48a11.923,11.923,0,0,0-4.815-3.576,9.416,9.416,0,0,0-5.244-.381,9.214,9.214,0,0,0-4.243,2,8.063,8.063,0,0,0-2.622,3.957,7.573,7.573,0,0,0,.1,4.481,10.086,10.086,0,0,0,2.717,4.243l4.339,4.1c.19.191,2.765,2.717,4.338,4.2,1,.953,2.1,2.384,1.621,4a4.683,4.683,0,0,1-3.719,2.956,5.435,5.435,0,0,1-3.242-.286,7.89,7.89,0,0,1-3.48-2.765l-4.386,3.432a13.99,13.99,0,0,0,5.864,4.529,11.472,11.472,0,0,0,4.2.763,10.885,10.885,0,0,0,2.146-.191,10.246,10.246,0,0,0,7.961-6.913A8.378,8.378,0,0,0-1880.389-568.706Zm43.717-23.313h-6.388l-8.772,12.109-8.772-12.109h-6.436l12.443,16.877v18.5h5.53v-18.5Z" transform="translate(2213.715 1089.032)" fill="#333"/>
  </g>
</svg>
