<svg id="online-food-order" xmlns="http://www.w3.org/2000/svg" width="21.354" height="37.836" viewBox="0 0 21.354 37.836">
  <path id="Path_263" data-name="Path 263" d="M.9,13.26H21.7V41.884H.9V13.26Z" transform="translate(-0.623 -9.177)" fill="#fff"/>
  <path id="Path_264" data-name="Path 264" d="M17,59.05h9.163A1.25,1.25,0,0,1,27.392,60.3v2.685a1.25,1.25,0,0,1-1.232,1.247H21.5V62.9a.844.844,0,0,0-.841-.841H20.5a.841.841,0,0,0-.841.841v1.327H17a1.253,1.253,0,0,1-1.247-1.247V60.3A1.25,1.25,0,0,1,17,59.05Z" transform="translate(-10.9 -40.868)" fill="#f23030"/>
  <path id="Path_265" data-name="Path 265" d="M25.63,23.582H15.315a1.2,1.2,0,0,1-1.195-1.192h0c0-1.7,3.387-2.934,6.226-2.962,5.595-.059,8.1,4.154,5.293,4.154Z" transform="translate(-9.771 -13.446)" fill="#f25f29"/>
  <path id="Path_266" data-name="Path 266" d="M29.745,22.713a.64.64,0,1,1-.64.64A.64.64,0,0,1,29.745,22.713Zm-5.595.043a.644.644,0,1,1-.64.644.644.644,0,0,1,.64-.644Zm2.771-.616a.64.64,0,1,1-.454.189A.644.644,0,0,1,26.922,22.14Z" transform="translate(-16.27 -15.323)" fill="#966538"/>
  <path id="Path_267" data-name="Path 267" d="M14.826,38.114h11.55a.422.422,0,0,1,.416.419,1.668,1.668,0,0,1-1.666,1.847h-9.05a1.661,1.661,0,0,1-1.666-1.847.416.416,0,0,1,.416-.419Zm11.938-2.029a.182.182,0,0,1,.028.1v.139a.182.182,0,0,1-.028.1c-.092.416-.474.958-1.638.958h-9.05c-1.164,0-1.54-.542-1.638-.958a.182.182,0,0,1-.028-.1v-.139a.191.191,0,0,1,.028-.1c.1-.413.474-.955,1.638-.955H20.75l1.727,1.783L24.2,35.13h.924c1.167,0,1.54.542,1.638.955Z" transform="translate(-9.973 -24.313)" fill="#f29b30"/>
  <path id="Path_268" data-name="Path 268" d="M4.089,0H17.268a4.083,4.083,0,0,1,4.086,4.089V33.747a4.083,4.083,0,0,1-4.086,4.089H4.089A4.089,4.089,0,0,1,0,33.747V4.083A4.08,4.08,0,0,1,4.089,0ZM7.522,32.158,5.469,29.224h0a4.7,4.7,0,0,1-.542-.9A2.688,2.688,0,0,1,4.7,27.5a1.77,1.77,0,0,1,.12-.813.948.948,0,0,1,.545-.511,1.207,1.207,0,0,1,.7-.049,1.943,1.943,0,0,1,.841.416c.2.172.554.456.9.736l.28.231V22.434a1.856,1.856,0,0,1,.924-1.77,1.487,1.487,0,0,1,1.342,0,1.851,1.851,0,0,1,.942,1.755v1.872h0a.271.271,0,0,1,.089,0h.474a.308.308,0,0,1,.077,0,1.155,1.155,0,0,1,1.035.948.394.394,0,0,1,.145-.031h.477a.308.308,0,0,1,.077,0,1.176,1.176,0,0,1,1.059,1.056h.533a.308.308,0,0,1,.077,0c1.312.216,1.293,1.512,1.293,2.559V29.1l.031,1.21v.04a4.024,4.024,0,0,1-.539,1.811h4.169V4.446H1.059V32.158H7.525Zm.551-3.787a.465.465,0,0,1-.052-.031c-.219-.172-.465-.366-.668-.539l-.887-.739a1.321,1.321,0,0,0-.545-.274.616.616,0,0,0-.308,0,.323.323,0,0,0-.163.163,1.124,1.124,0,0,0-.062.487,2.026,2.026,0,0,0,.166.616A3.572,3.572,0,0,0,6,28.8a.083.083,0,0,1,.018.031l2.328,3.332H15.3a3.846,3.846,0,0,0,.64-1.847l-.025-1.176a.283.283,0,0,1,0-.049v-.277c0-.779.018-1.74-.693-1.847h-.465a5.193,5.193,0,0,1-.028.659,3.967,3.967,0,0,0-.028.557.345.345,0,0,1-.687,0,4.96,4.96,0,0,1,.028-.616c.043-.736.1-1.577-.487-1.681H13.1a.308.308,0,0,1-.074,0,7.788,7.788,0,0,1-.028.8c0,.191-.028.379-.028.554a.345.345,0,1,1-.687,0,5.6,5.6,0,0,1,.025-.616c.046-.736.1-1.573-.483-1.678h-.456a.308.308,0,0,1-.092,0v1.339a.345.345,0,1,1-.687,0v-3.87a1.162,1.162,0,0,0-.56-1.136.8.8,0,0,0-.724,0,1.212,1.212,0,0,0-.551,1.158v6.58a.345.345,0,1,1-.69,0v-.64h0Zm2.6,5.065a1.678,1.678,0,1,1-1.19.492A1.681,1.681,0,0,1,10.672,33.436Z" transform="translate(0 0)"/>
  <path id="Path_269" data-name="Path 269" d="M.9,13.26H21.7V41.9H.9V13.26ZM8.145,41.335,6.091,38.4h0a4.7,4.7,0,0,1-.542-.9,2.688,2.688,0,0,1-.222-.831,1.77,1.77,0,0,1,.12-.813.948.948,0,0,1,.545-.511,1.207,1.207,0,0,1,.7-.049,1.943,1.943,0,0,1,.841.416c.2.172.554.456.9.736l.28.231V31.612a1.856,1.856,0,0,1,.924-1.77,1.487,1.487,0,0,1,1.342,0,1.851,1.851,0,0,1,.942,1.755v1.872h0a.271.271,0,0,1,.089,0h.474a.308.308,0,0,1,.077,0,1.155,1.155,0,0,1,1.035.948.394.394,0,0,1,.145-.031h.477a.308.308,0,0,1,.077,0,1.176,1.176,0,0,1,1.059,1.056h.533a.308.308,0,0,1,.077,0c1.312.216,1.293,1.512,1.293,2.559v.274l.031,1.21v.04a4.024,4.024,0,0,1-.539,1.811h4.169V13.623H1.682V41.335H8.148ZM8.7,37.548a.464.464,0,0,1-.052-.031c-.219-.172-.465-.366-.668-.539l-.887-.739a1.321,1.321,0,0,0-.545-.274.616.616,0,0,0-.308,0,.323.323,0,0,0-.163.163,1.124,1.124,0,0,0-.062.486,2.026,2.026,0,0,0,.166.616,3.572,3.572,0,0,0,.44.742A.083.083,0,0,1,6.636,38l2.328,3.332h6.962a3.846,3.846,0,0,0,.64-1.847l-.025-1.176a.283.283,0,0,1,0-.049v-.277c0-.779.018-1.74-.693-1.847h-.465a5.193,5.193,0,0,1-.028.659,3.967,3.967,0,0,0-.028.557.345.345,0,0,1-.687,0,4.959,4.959,0,0,1,.028-.616c.043-.736.1-1.577-.487-1.681h-.456a.308.308,0,0,1-.074,0,7.788,7.788,0,0,1-.028.8c0,.191-.028.379-.028.554a.345.345,0,1,1-.687,0,5.6,5.6,0,0,1,.025-.616c.046-.736.1-1.573-.483-1.678H12a.308.308,0,0,1-.092,0V35.46a.345.345,0,1,1-.687,0V31.59a1.162,1.162,0,0,0-.56-1.136.8.8,0,0,0-.724,0,1.212,1.212,0,0,0-.551,1.158v6.58a.345.345,0,0,1-.69,0v-.64h0Z" transform="translate(-0.623 -9.177)" fill="#262626"/>
</svg>
