<svg xmlns="http://www.w3.org/2000/svg" width="25.592" height="20.939" viewBox="0 0 25.592 20.939">
  <g id="organisation" transform="translate(-1.5 -4.5)">
    <path id="Path_1685" data-name="Path 1685" d="M25.5,22.5h2.327v2.327H25.5Z" transform="translate(-5.388 -4.041)" fill="#f25f29"/>
    <path id="Path_1686" data-name="Path 1686" d="M27.827,16.5H25.5v2.327h2.327Z" transform="translate(-5.388 -2.694)" fill="#f25f29"/>
    <path id="Path_1687" data-name="Path 1687" d="M15.459,9.153H27.092V25.439H1.5V4.5H15.459ZM9.643,6.827h3.49V9.153H9.643Zm3.49,16.286V20.786H9.643v2.327Zm0-4.653V16.133H9.643v2.327Zm0-4.653V11.48H9.643v2.327Zm11.633,9.306V11.48H15.459v2.327h2.327v2.327H15.459v2.327h2.327v2.327H15.459v2.327Zm-20.939,0V20.786h3.49v2.327Zm0-4.653h3.49V16.133H3.827Zm3.49-4.653V11.48H3.827v2.327ZM3.827,9.153h3.49V6.827H3.827Z" fill="#f25f29"/>
  </g>
</svg>
