<svg xmlns="http://www.w3.org/2000/svg" width="27.07" height="20.303" viewBox="0 0 27.07 20.303">
  <g id="person-plus-fill" transform="translate(0 -4.5)">
    <path id="Path_1702" data-name="Path 1702" d="M1.692,24.8A1.657,1.657,0,0,1,0,23.111c0-1.692,1.692-6.768,10.151-6.768S20.3,21.419,20.3,23.111A1.657,1.657,0,0,1,18.611,24.8Zm8.459-10.151A5.076,5.076,0,1,0,5.076,9.576,5.076,5.076,0,0,0,10.151,14.651ZM22.841,9.576a.846.846,0,0,1,.846.846v3.384a.846.846,0,0,1-.846.846H19.457a.846.846,0,0,1,0-1.692h2.538V10.422A.846.846,0,0,1,22.841,9.576Z" fill="#fff"/>
    <path id="Path_1703" data-name="Path 1703" d="M29.25,16.6a.846.846,0,0,1,.846-.846H33.48a.846.846,0,0,1,0,1.692H30.942V19.98a.846.846,0,0,1-1.692,0Z" transform="translate(-7.255 -2.791)" fill="#fff"/>
  </g>
</svg>
