<svg xmlns="http://www.w3.org/2000/svg" width="30.407" height="54.429" viewBox="0 0 30.407 54.429">
  <g id="Group_1543" data-name="Group 1543" transform="translate(-767.162 -422.135)">
    <path id="Path_1683" data-name="Path 1683" d="M10437.668,4241.356c-.088-.086.107-9.386.107-9.386l19.906.153-.131,9.386Z" transform="translate(-9665.313 -3793.375)" fill="#f25f29"/>
    <g id="pos-terminal" transform="translate(767.162 422.135)">
      <path id="Path_1682" data-name="Path 1682" d="M.722,32.446a17.593,17.593,0,0,1-.549-2.578A30.517,30.517,0,0,1,0,26.028V14.675A3.686,3.686,0,0,1,.983,12.15,3.238,3.238,0,0,1,3.353,11.1H4.407V2.653A2.654,2.654,0,0,1,7.065,0H25.5c1.617,0,2.512.058,3.132.664s.713,1.506.713,3.18V6.294a.8.8,0,0,1-.8.8H26.236v4h.726a3.228,3.228,0,0,1,2.374,1.059,3.7,3.7,0,0,1,.988,2.534V26.063h0a20.017,20.017,0,0,1-.053,4.186,18.9,18.9,0,0,1-.669,3.074c-1.32,4.5-1.24,8.46-1.152,12.885.022,1.218.049,2.463.049,3.579v.035a4.764,4.764,0,0,1-1,3.428,4.066,4.066,0,0,1-3.344,1.174H5.909a3.635,3.635,0,0,1-3.083-1.152,4.755,4.755,0,0,1-.9-3.145h0V41.712A36.859,36.859,0,0,0,1.692,37a33.805,33.805,0,0,0-.97-4.554ZM5.24,15.663H25.173a1.176,1.176,0,0,1,.859.381h0a1.236,1.236,0,0,1,.332.842v8.788a1.236,1.236,0,0,1-.332.842.57.57,0,0,1-.075.071,1.159,1.159,0,0,1-.788.31H5.236a1.176,1.176,0,0,1-.859-.381,1.228,1.228,0,0,1-.337-.842V16.885a1.228,1.228,0,0,1,.337-.842,1.193,1.193,0,0,1,.864-.381Zm7.752,29.567h4.425v4.886H12.992V45.229ZM5.971,29.824H10.4v4.886H5.971V29.824Zm7.021,0h4.425v4.886H12.992V29.824Zm7.021,0h4.425v4.886H20.012V29.824Zm0,7.7h4.425V50.093H20.012V37.526Zm-7.021,0h4.425v4.886H12.992V37.526Zm-7.021,0H10.4v4.886H5.971V37.526Zm0,7.7H10.4v4.886H5.971V45.229ZM24.787,17.244H5.625v8.07H24.787v-8.07ZM26.236,1.595V5.5h1.51V3.845c0-1.227-.031-1.847-.23-2.042-.146-.146-.558-.195-1.28-.208ZM7.787,6.547H22.976V8H7.787V6.547Zm-.04-3.34H9.971V4.664H7.747V3.207Zm4.376,0H22.976V4.664H12.123V3.207Zm10.8-1.617H7.065a1.044,1.044,0,0,0-.749.314A1.059,1.059,0,0,0,6,2.653V10.87H24.65V1.59ZM1.471,29.677a16.833,16.833,0,0,0,.514,2.383,34.478,34.478,0,0,1,1,4.753,37.731,37.731,0,0,1,.248,4.9v8.416h0v0a3.412,3.412,0,0,0,.567,2.21,2.449,2.449,0,0,0,2.069.687.405.405,0,0,1,.075,0H24.163v0h.022a2.924,2.924,0,0,0,2.379-.74,3.42,3.42,0,0,0,.633-2.423.481.481,0,0,1,0-.08c0-1.347-.022-2.463-.044-3.552-.089-4.549-.173-8.624,1.209-13.328a17.451,17.451,0,0,0,.62-2.839,19.005,19.005,0,0,0,.049-3.885.585.585,0,0,1-.009-.124V14.688a2.254,2.254,0,0,0-.6-1.55,1.987,1.987,0,0,0-1.448-.642H3.353a1.963,1.963,0,0,0-1.44.638,2.247,2.247,0,0,0-.6,1.546V26.032a29.917,29.917,0,0,0,.155,3.645Z" transform="translate(0 0)"/>
    </g>
  </g>
</svg>
