<svg xmlns="http://www.w3.org/2000/svg" width="25.985" height="22.737" viewBox="0 0 25.985 22.737">
  <path id="Icon_metro-printer" data-name="Icon metro-printer" d="M9.067,3.856H22.059V7.1H9.067V3.856ZM26.931,8.728H4.195a1.629,1.629,0,0,0-1.624,1.624v8.12A1.629,1.629,0,0,0,4.195,20.1H9.067v6.5H22.059V20.1h4.872a1.629,1.629,0,0,0,1.624-1.624v-8.12a1.629,1.629,0,0,0-1.624-1.624ZM5.819,13.6a1.624,1.624,0,1,1,1.624-1.624A1.624,1.624,0,0,1,5.819,13.6ZM20.435,24.969H10.691v-8.12h9.744Z" transform="translate(-2.571 -3.856)" fill="#f25f29"/>
</svg>
