<svg xmlns="http://www.w3.org/2000/svg" width="68" height="68" viewBox="0 0 68 68">
  <g id="Group_1493" data-name="Group 1493" transform="translate(-630 -805)">
    <circle id="Ellipse_214" data-name="Ellipse 214" cx="34" cy="34" r="34" transform="translate(630 805)" fill="#034fc1"/>
    <path id="print" d="M5.727,21H19.091V17.182H5.727Zm0-9.545H19.091V5.727H16.7A1.426,1.426,0,0,1,15.272,4.3V1.909H5.727v9.545Zm17.181.955a.968.968,0,1,0-.283.671.918.918,0,0,0,.283-.671Zm1.909,0v6.2a.485.485,0,0,1-.478.478H21v2.387a1.426,1.426,0,0,1-1.432,1.432H5.25a1.426,1.426,0,0,1-1.432-1.432V19.092H.477a.459.459,0,0,1-.336-.142A.457.457,0,0,1,0,18.613v-6.2a2.756,2.756,0,0,1,.842-2.021,2.759,2.759,0,0,1,2.021-.843h.955V1.432A1.381,1.381,0,0,1,4.236.418,1.381,1.381,0,0,1,5.25,0H15.272a3.443,3.443,0,0,1,1.313.3,3.47,3.47,0,0,1,1.133.716l2.267,2.267A3.465,3.465,0,0,1,20.7,4.414,3.457,3.457,0,0,1,21,5.727V9.544h.955a2.877,2.877,0,0,1,2.864,2.864Z" transform="translate(651.592 827.545)" fill="#fff"/>
  </g>
</svg>
