<svg xmlns="http://www.w3.org/2000/svg" width="20.293" height="23.581" viewBox="0 0 20.293 23.581">
  <g id="Privacy_Policy" data-name="Privacy Policy" transform="translate(-4 -1.75)">
    <path id="Path_1652" data-name="Path 1652" d="M14.474,16.563l-2.088-2.088L11.25,15.611l3.224,3.224,6.449-6.449L19.787,11.25Z" transform="translate(-1.94 -2.578)" fill="#f25f29"/>
    <path id="Path_1652_-_Outline" data-name="Path 1652 - Outline" d="M14.436,19.466l-3.893-3.893,1.805-1.805,2.088,2.088,5.313-5.313,1.805,1.805Zm-2.556-3.893,2.556,2.556,5.78-5.78-.468-.468-5.313,5.313-2.088-2.088Z" transform="translate(-1.902 -2.54)" fill="#f25f29"/>
    <path id="Path_1653" data-name="Path 1653" d="M14.173,24.821,9.195,22.167A8.853,8.853,0,0,1,4.5,14.342V3.862A1.614,1.614,0,0,1,6.112,2.25H22.235a1.614,1.614,0,0,1,1.612,1.612v10.48a8.853,8.853,0,0,1-4.695,7.825ZM6.112,3.862v10.48a7.243,7.243,0,0,0,3.842,6.4l4.219,2.25,4.219-2.249a7.243,7.243,0,0,0,3.842-6.4V3.862Z" transform="translate(-0.027 -0.027)" fill="#f25f29"/>
    <path id="Path_1653_-_Outline" data-name="Path 1653 - Outline" d="M14.146,25.331l-5.2-2.774A9.306,9.306,0,0,1,4,14.314V3.835A2.09,2.09,0,0,1,6.085,1.75H22.208a2.09,2.09,0,0,1,2.085,2.085v10.48a9.306,9.306,0,0,1-4.946,8.242ZM6.085,2.7a1.142,1.142,0,0,0-1.139,1.14V14.315A8.363,8.363,0,0,0,9.39,21.722l4.756,2.536L18.9,21.722a8.363,8.363,0,0,0,4.444-7.407V3.835A1.142,1.142,0,0,0,22.207,2.7ZM14.146,23.5,9.7,21.135a7.7,7.7,0,0,1-4.093-6.82V3.362H22.681V14.315a7.7,7.7,0,0,1-4.093,6.821ZM6.558,4.308V14.315A6.756,6.756,0,0,0,10.15,20.3l4,2.132,4-2.131a6.756,6.756,0,0,0,3.592-5.985V4.308Z" transform="translate(0 0)" fill="#f25f29"/>
  </g>
</svg>
