<svg id="Group_1346" data-name="Group 1346" xmlns="http://www.w3.org/2000/svg" width="51.882" height="40.56" viewBox="0 0 51.882 40.56">
  <path id="breakfast" d="M34.285,0A18.759,18.759,0,0,1,52.851,18.935a19,19,0,0,1-.125,2.194,9.017,9.017,0,0,0-1.15-.68c.038-.5.063-1,.063-1.509a17.884,17.884,0,0,0-1.75-7.746,1.766,1.766,0,0,1-.171.276h0l-.029.038-3.8,5-.033.043a1.66,1.66,0,0,1-.959.561,1.589,1.589,0,0,1-1.138-.3l-.608-.472a7.251,7.251,0,0,1,.229,1.02A3.777,3.777,0,0,1,42.87,19.9h0a4.952,4.952,0,0,1-1.809,1.7v5.9a.539.539,0,0,1,0,.115,1.486,1.486,0,0,1-.638,1.131,2.459,2.459,0,0,1-1.359.289H29.722l1.038-1.063h8.285a1.674,1.674,0,0,0,.8-.123c.083-.055.133-.174.167-.387V21.29a.541.541,0,0,1,.283-.459,4.156,4.156,0,0,0,1.667-1.479,2.744,2.744,0,0,0,.363-1.828,5.58,5.58,0,0,0-1.209-2.746c-.754-.6-1.5-1.19-2.263-1.781a11.6,11.6,0,0,0-5.139-1.144A10.935,10.935,0,0,0,27.5,13.6a5.607,5.607,0,0,0-2.188,2.738l-.146-.034a4.849,4.849,0,0,0-.9-.153,6.605,6.605,0,0,1,2.642-3.448,12,12,0,0,1,6.805-1.917q.417,0,.833.026l-.588-.242a1.547,1.547,0,0,1-.833-.735,1.3,1.3,0,0,1,0-1.054l2.651-6.275a.236.236,0,0,1,.033-.064,1.307,1.307,0,0,1,.713-.54,3.369,3.369,0,0,1,1.5.111,16.14,16.14,0,0,1,2.284.748l.1.047a10.584,10.584,0,0,1,2.659,1.471l-.467.4A11.057,11.057,0,0,0,40.182,3.4l-.1-.047a15.839,15.839,0,0,0-2.188-.718A2.932,2.932,0,0,0,36.7,2.521a.616.616,0,0,0-.2.1.8.8,0,0,0-.167.17l-.05.119a15.1,15.1,0,0,1,3.288.986c.917.366,1.842.791,2.6,1.186-.163.145-.321.293-.479.425-.688-.349-1.517-.718-2.338-1.046a11.708,11.708,0,0,0-3.334-.974L33.7,9.017a.706.706,0,0,0-.033.561,1,1,0,0,0,.517.425l2.9,1.2q.592.153,1.15.357a1.594,1.594,0,0,1,.292-.6l4.3-5.527.05-.055A1.485,1.485,0,0,1,43.3,5.14a1.229,1.229,0,0,1,.458-.089,3.481,3.481,0,0,1,1.467.531,15.239,15.239,0,0,1,1.367.85l-.021-.021h0a17.1,17.1,0,0,0-20.06-3.325,17.8,17.8,0,0,0-9.4,18.379l-.629.6-.121.119h0c-.1.111-.208.221-.3.332A19.219,19.219,0,0,1,19.971,6.877,18.424,18.424,0,0,1,34.285,0ZM24.479,19.513C23.837,19.364,24.778,19.562,24.479,19.513Zm.3,14.259A17.086,17.086,0,0,0,44,33.631c.188.2.383.4.588.582.1.094.213.191.321.281a18.28,18.28,0,0,1-21.375-.089l.108-.043A7.418,7.418,0,0,0,24.775,33.772ZM38.845,11.806a9.479,9.479,0,0,1,1.417.769,7.228,7.228,0,0,1,2.371,2.551L44.1,16.274a.986.986,0,0,0,.7.2,1.08,1.08,0,0,0,.592-.361L49.055,11.3a17.978,17.978,0,0,0-3.213-2.908,12.222,12.222,0,0,0-3.034-1.9l-3.792,4.863a.807.807,0,0,0-.188.451Zm-2.651,7.605a1.867,1.867,0,1,1-1.83,1.866A1.848,1.848,0,0,1,36.194,19.411Zm-1.154,5.1a.663.663,0,0,1,.613.418.686.686,0,0,1-.146.737.653.653,0,0,1-.724.144.685.685,0,0,1-.212-1.1.652.652,0,0,1,.468-.2Zm-4.422-8.09a1.129,1.129,0,0,1,1.047.709,1.169,1.169,0,0,1-.244,1.257,1.113,1.113,0,0,1-1.233.249,1.153,1.153,0,0,1-.7-1.068A1.137,1.137,0,0,1,30.618,16.422Zm-3.438-.089a.566.566,0,0,1,.067,1.127l-.158-.174a4.181,4.181,0,0,0-.45-.357V16.9a.571.571,0,0,1,.164-.4.549.549,0,0,1,.395-.164Zm11.252.344a.933.933,0,0,1,.868.582.966.966,0,0,1-.2,1.041.92.92,0,0,1-1.018.21.953.953,0,0,1-.578-.881.943.943,0,0,1,.934-.952ZM34.069,13.9a.8.8,0,0,1,.743.507.833.833,0,0,1-.176.895.793.793,0,0,1-.878.175.821.821,0,0,1-.494-.761.812.812,0,0,1,.8-.816ZM23.9,9.837a.545.545,0,0,1-.758.183.569.569,0,0,1-.179-.774,10.107,10.107,0,0,1,3.288-3.375,7.959,7.959,0,0,1,4.238-1.237.551.551,0,0,1,.52.267.575.575,0,0,1,0,.593.551.551,0,0,1-.52.267,6.863,6.863,0,0,0-3.642,1.071,9.017,9.017,0,0,0-2.917,3.006ZM43.758,5.692a.737.737,0,0,0-.233.047.962.962,0,0,0-.208.123l-.083.106a15.371,15.371,0,0,1,3.026,1.9,22.094,22.094,0,0,1,3.163,2.84,1.092,1.092,0,0,0,.033-.234.69.69,0,0,0,0-.2c-.225-.425-.467-.808-.721-1.2a15.151,15.151,0,0,0-1.709-1.53l-.1-.072a16.006,16.006,0,0,0-1.984-1.331,3.1,3.1,0,0,0-1.188-.451Zm2.355,3.881a.313.313,0,0,0-.444.066.328.328,0,0,0,.065.453.313.313,0,0,0,.444-.066A.328.328,0,0,0,46.113,9.574Zm.946.85a.313.313,0,0,0-.406.084.328.328,0,0,0,.023.422.313.313,0,0,0,.444-.066.328.328,0,0,0-.065-.453Zm.833.974a.313.313,0,0,0-.406.084.328.328,0,0,0,.023.422.317.317,0,0,0,.446-.064.332.332,0,0,0-.067-.455ZM45.1,8.826a.33.33,0,0,1,.071.455.315.315,0,0,1-.446.072.329.329,0,0,1-.063-.455.314.314,0,0,1,.446-.064ZM44.05,8.137a.329.329,0,0,1,.063.455.314.314,0,0,1-.446.064A.332.332,0,0,1,43.6,8.2a.316.316,0,0,1,.21-.127A.312.312,0,0,1,44.05,8.137Zm-1.125-.565a.327.327,0,0,1,.061.452.313.313,0,0,1-.443.063.327.327,0,0,1-.064-.451.316.316,0,0,1,.21-.127.312.312,0,0,1,.236.063ZM39.878,5.527a.3.3,0,0,0-.247,0,.312.312,0,0,0-.17.182.316.316,0,0,0,.184.378.306.306,0,0,0,.387-.149.32.32,0,0,0,0-.25.311.311,0,0,0-.176-.175Zm1.092.536a.3.3,0,0,0-.247-.009.3.3,0,0,0-.17.183.323.323,0,0,0,.075.349c.142-.153.283-.306.417-.455a.316.316,0,0,0-.108-.068ZM38.757,5.055a.317.317,0,0,1,.157.409.306.306,0,0,1-.4.17.317.317,0,0,1-.177-.4.312.312,0,0,1,.17-.182.3.3,0,0,1,.247,0Zm-1.163-.378a.312.312,0,0,1,.219.246.318.318,0,0,1-.12.309.3.3,0,0,1-.325.027.312.312,0,0,1-.219-.246.318.318,0,0,1,.12-.309.3.3,0,0,1,.325-.027Zm-1.217-.213a.307.307,0,0,1,.18.173.316.316,0,0,1-.005.252.312.312,0,0,1-.17.182.3.3,0,0,1-.247,0,.317.317,0,0,1-.146-.4.307.307,0,0,1,.371-.187Z" transform="translate(-8.344)"/>
  <path id="breakfast-2" data-name="breakfast" d="M48.726,61.85,42.17,56.282c-5.091.342-8.65-5.377-4.99-7.288,4.441-2.322,10.36,3.229,7.265,6.032l6.873,5.49c1.659,1.327-.8,2.861-2.592,1.34ZM11.415,54.936a4.885,4.885,0,0,0,4.222-1.411l4.39-3.381c.608-.475-.422-1.382-1.178-.9l-3.609,2.7a.85.85,0,0,1-.7.171.648.648,0,0,1-.522-.4.472.472,0,0,1,.224-.538l3.732-2.793c.642-.513-.35-1.379-1.093-.833-1.022.785-2.706,2.009-3.732,2.79-.6.536-1.608-.11-.844-.646l3.707-2.771a.533.533,0,0,0,.153-.643.826.826,0,0,0-.66-.416c-.65-.113-1.072.323-1.52.646L9.634,49.621c-1.2.949-1.874,1.96-1.342,3.016a2.568,2.568,0,0,0,.422.559L.468,59a1.064,1.064,0,0,0-.483.819,1.03,1.03,0,0,0,.428.837l.131.1a2.027,2.027,0,0,0,1.231.371,1.989,1.989,0,0,0,1.209-.41l7.51-6.177A2.91,2.91,0,0,0,11.415,54.936Z" transform="translate(0.015 -21.929)" fill="#f25f29"/>
</svg>
