<svg xmlns="http://www.w3.org/2000/svg" xmlns:xlink="http://www.w3.org/1999/xlink" width="198.509" height="42.742" viewBox="0 0 198.509 42.742">
  <defs>
    <linearGradient id="linear-gradient" x1="0.105" y1="0.899" x2="0.928" y2="-0.041" gradientUnits="objectBoundingBox">
      <stop offset="0" stop-color="#ef8106"/>
      <stop offset="1" stop-color="#d53700"/>
    </linearGradient>
    <linearGradient id="linear-gradient-2" x1="0.276" y1="0.737" x2="1.034" gradientUnits="objectBoundingBox">
      <stop offset="0" stop-color="#f68522"/>
      <stop offset="1" stop-color="#ee4709"/>
    </linearGradient>
  </defs>
  <g id="Group_1477" data-name="Group 1477" transform="translate(-114.745 -127.76)">
    <g id="Group_1388" data-name="Group 1388" transform="translate(114.558 127.76)">
      <path id="Subtraction_6" data-name="Subtraction 6" d="M6.481,0A6.481,6.481,0,1,1,0,6.481,6.481,6.481,0,0,1,6.481,0Z" transform="translate(0.188 29.779)" fill="url(#linear-gradient)"/>
      <path id="Union_11" data-name="Union 11" d="M23.856,40.373l-4.82-5.952a17.471,17.471,0,0,1-1.78.091A17.256,17.256,0,0,1,0,17.256V9.626A9.627,9.627,0,0,1,9.626,0h7.629a17.256,17.256,0,0,1,11.97,29.684l3.1,3.83a5.45,5.45,0,1,1-8.471,6.859Z" transform="translate(0.202 0)" fill="url(#linear-gradient-2)"/>
    </g>
    <path id="Path_1662" data-name="Path 1662" d="M-2092.445-579.9a5.615,5.615,0,0,0,2.326-1.542,6.784,6.784,0,0,0,1.623-4.625,6.807,6.807,0,0,0-1.623-4.652,6.379,6.379,0,0,0-5-2h-5.95v20.068h3.137v-6.789h2.3l5.058,6.789h3.543Zm-5.49-2.353v-7.627h2.813a3.682,3.682,0,0,1,2.894,1.055,4.012,4.012,0,0,1,.892,2.759,3.987,3.987,0,0,1-.892,2.732,3.693,3.693,0,0,1-2.894,1.082Zm33.132,9.6h3.435l-8.709-20.988-8.736,20.988h3.462l1.7-4.3h7.14Zm-7.708-7.113,2.434-6.112,2.434,6.112Zm30.86.27a6.01,6.01,0,0,0-1.758-2.623c-.433-.406-1.028-.974-1.515-1.46h0l-3.354-3.219c-.838-.811-.865-1.433-.757-1.812a1.841,1.841,0,0,1,1.46-1.163,2.672,2.672,0,0,1,2.651,1.136l2.461-1.974a6.762,6.762,0,0,0-2.731-2.028,5.341,5.341,0,0,0-2.975-.216,5.228,5.228,0,0,0-2.407,1.136,4.574,4.574,0,0,0-1.488,2.245,4.3,4.3,0,0,0,.054,2.542,5.727,5.727,0,0,0,1.542,2.407l2.461,2.326c.108.108,1.569,1.542,2.461,2.38a2.35,2.35,0,0,1,.919,2.272,2.657,2.657,0,0,1-2.11,1.677,3.083,3.083,0,0,1-1.839-.162,4.476,4.476,0,0,1-1.974-1.569l-2.488,1.947a7.937,7.937,0,0,0,3.327,2.569,6.508,6.508,0,0,0,2.38.433,6.176,6.176,0,0,0,1.217-.108,5.812,5.812,0,0,0,4.517-3.922A4.749,4.749,0,0,0-2041.652-579.495Zm20.42,0a6.01,6.01,0,0,0-1.758-2.623c-.433-.406-1.028-.974-1.515-1.46h0l-3.354-3.219c-.838-.811-.865-1.433-.757-1.812a1.841,1.841,0,0,1,1.46-1.163,2.672,2.672,0,0,1,2.651,1.136l2.461-1.974a6.762,6.762,0,0,0-2.732-2.028,5.341,5.341,0,0,0-2.975-.216,5.228,5.228,0,0,0-2.407,1.136,4.574,4.574,0,0,0-1.488,2.245,4.3,4.3,0,0,0,.054,2.542,5.718,5.718,0,0,0,1.542,2.407l2.461,2.326c.108.108,1.568,1.542,2.461,2.38a2.351,2.351,0,0,1,.919,2.272,2.657,2.657,0,0,1-2.11,1.677,3.083,3.083,0,0,1-1.839-.162,4.476,4.476,0,0,1-1.975-1.569l-2.488,1.947a7.936,7.936,0,0,0,3.327,2.569,6.507,6.507,0,0,0,2.38.433,6.176,6.176,0,0,0,1.217-.108,5.812,5.812,0,0,0,4.517-3.922A4.753,4.753,0,0,0-2021.232-579.495Zm22.2,6.843h3.435l-8.709-20.988-8.736,20.988h3.462l1.7-4.3h7.14Zm-7.708-7.113,2.434-6.112,2.434,6.112Zm30.859.27a6.007,6.007,0,0,0-1.758-2.623c-.433-.406-1.028-.974-1.515-1.46h0l-3.354-3.219c-.838-.811-.865-1.433-.757-1.812a1.841,1.841,0,0,1,1.46-1.163,2.672,2.672,0,0,1,2.651,1.136l2.461-1.974a6.764,6.764,0,0,0-2.732-2.028,5.341,5.341,0,0,0-2.975-.216,5.226,5.226,0,0,0-2.407,1.136,4.576,4.576,0,0,0-1.488,2.245,4.3,4.3,0,0,0,.054,2.542,5.723,5.723,0,0,0,1.542,2.407l2.461,2.326c.108.108,1.569,1.542,2.461,2.38a2.351,2.351,0,0,1,.92,2.272,2.657,2.657,0,0,1-2.11,1.677,3.083,3.083,0,0,1-1.839-.162,4.476,4.476,0,0,1-1.975-1.569l-2.488,1.947a7.938,7.938,0,0,0,3.327,2.569,6.508,6.508,0,0,0,2.38.433,6.176,6.176,0,0,0,1.217-.108,5.812,5.812,0,0,0,4.517-3.922A4.751,4.751,0,0,0-1975.876-579.495Zm24.8-13.226h-3.624l-4.977,6.87-4.977-6.87h-3.651l7.059,9.574v10.494h3.137v-10.494Z" transform="translate(2264.329 732.277)" fill="#333"/>
  </g>
</svg>
