<svg xmlns="http://www.w3.org/2000/svg" width="33.78" height="41.763" viewBox="0 0 33.78 41.763">
  <g id="Group_1544" data-name="Group 1544" transform="translate(-695.561 -565.021)">
    <path id="Path_1679" data-name="Path 1679" d="M10370.437,4485.591v4.884s18.515.257,18.415,0,0-5.051,0-5.051l-3.663-.218-.529-2.632-9.858.2-.271,2.483Z" transform="translate(-9667.195 -3917.15)" fill="#f25f29"/>
    <g id="audit-report-survey" transform="translate(695.561 565.021)">
      <path id="Path_1678" data-name="Path 1678" d="M22.336,4.323a.887.887,0,0,1-.289-.044.864.864,0,0,1-.863-.863v-1.7H12.813v1.7a.859.859,0,0,1-.775.85.972.972,0,0,1-.3.044H8.582V7.827H25.1V4.306h-2.79l.031.017ZM7.766,25.5a1.7,1.7,0,1,1-1.7,1.7,1.7,1.7,0,0,1,1.7-1.7ZM5.8,21.31a.764.764,0,1,1,1.271-.85l.418.619,1.655-2.012a.765.765,0,1,1,1.183.972L8.038,22.825A.893.893,0,0,1,7.854,23a.763.763,0,0,1-1.06-.211L5.8,21.31Zm0-5.886a.764.764,0,0,1,1.271-.85l.418.619,1.655-2.015a.765.765,0,1,1,1.183.972L8.038,16.936a.894.894,0,0,1-.184.173.763.763,0,0,1-1.06-.211L5.8,15.423ZM23.519,41.535a.891.891,0,0,1-.578.228.462.462,0,0,1-.136-.014H1.91a1.911,1.911,0,0,1-1.349-.561A1.889,1.889,0,0,1,0,39.836V6.746a1.915,1.915,0,0,1,1.91-1.91H6.882V3.895a1.269,1.269,0,0,1,.381-.911A1.286,1.286,0,0,1,8.174,2.6h2.943V1.424a1.4,1.4,0,0,1,.425-1,1.4,1.4,0,0,1,1-.425H21.5a1.4,1.4,0,0,1,1,.425,1.405,1.405,0,0,1,.425,1V2.607h2.654a1.343,1.343,0,0,1,.911.381,1.31,1.31,0,0,1,.381.911V4.84h4.972a1.915,1.915,0,0,1,1.91,1.91V30.619a.871.871,0,0,1-.258.863l-9.873,9.992a.3.3,0,0,1-.075.061Zm-1.441-1.5c0-11.426-1.441-10.07,9.931-10.07V6.746a.16.16,0,0,0-.061-.136.19.19,0,0,0-.136-.061H26.839v1.73a1.269,1.269,0,0,1-.381.911,1.286,1.286,0,0,1-.911.381H8.157a1.31,1.31,0,0,1-.911-.381c-.031-.031-.044-.061-.075-.092a1.32,1.32,0,0,1-.3-.819V6.549H1.9a.16.16,0,0,0-.136.061.228.228,0,0,0-.061.136V39.836a.143.143,0,0,0,.061.136.19.19,0,0,0,.136.061H22.078ZM14.013,27.8a.863.863,0,1,1,0-1.727h8.2a.863.863,0,1,1,0,1.727Zm0-12.33a.863.863,0,0,1,0-1.727H26.642a.863.863,0,1,1,0,1.727Zm0,6.165a.863.863,0,0,1,0-1.727H26.642a.863.863,0,1,1,0,1.727Z" transform="translate(0 0)"/>
    </g>
  </g>
</svg>
