<svg id="Group_9" data-name="Group 9" xmlns="http://www.w3.org/2000/svg" width="75" height="52.253" viewBox="0 0 75 52.253">
  <path id="Path_21" data-name="Path 21" d="M72.67,60.412a.824.824,0,0,0-.232-.479A10.535,10.535,0,0,0,68.8,57.57a12.259,12.259,0,0,0-3.2-.767l.214-3.4h7.7a1.471,1.471,0,0,0,1.459-1.467c0-6.077-1.422-10.645,0-17.563.421-2.05-3.784-2.345-3.784.11V50.056H56.629c-.8,0-1.459,1.08-1.459,1.885v1.142a.327.327,0,0,0,.323.325h7.721l.3,3.364a12.232,12.232,0,0,0-3.394.712,10.65,10.65,0,0,0-3.534,2.124.841.841,0,0,0-.244.823,1.341,1.341,0,0,0-.623,1.252,1.55,1.55,0,1,0,3.1,0,1.347,1.347,0,0,0-.635-1.258,9.2,9.2,0,0,1,2.5-1.375,10.319,10.319,0,0,1,3.253-.626l.171,1.688.006.074a1.5,1.5,0,0,0-1.135,1.5,1.55,1.55,0,1,0,3.1,0,1.493,1.493,0,0,0-1.123-1.5l.006-.08.122-1.67a10.388,10.388,0,0,1,3.107.688H68.2a8.938,8.938,0,0,1,2.478,1.449,1.251,1.251,0,0,0-.464,1.111,1.716,1.716,0,0,0,1.55,1.559,1.68,1.68,0,0,0,1.55-1.559,1.34,1.34,0,0,0-.641-1.277Zm-20.533-22.3H26.459a.252.252,0,0,0-.25.252V42a.252.252,0,0,0,.25.252H37.238v22.29a.34.34,0,0,0,.336.338h3.821a.34.34,0,0,0,.336-.338V42.26H52.137a.256.256,0,0,0,.25-.252V38.374a.253.253,0,0,0-.25-.258Zm-51.35-2.9H2.857a.829.829,0,0,1,.769.773A92.612,92.612,0,0,1,4.81,50.866H18.97a1.018,1.018,0,0,1,1.013,1.019v2.063h-.812V64.513a.314.314,0,0,1-.311.313H16.144a.313.313,0,0,1-.311-.313V59.921H4.254q-.256,2.1-.629,4.2a.834.834,0,0,1-.769.773H.788c-.421,0-.885-.362-.769-.773C2.747,54.568,2.179,45.231.018,36c-.1-.417.348-.78.769-.78ZM15.839,58.5V53.954H4.767c-.061,1.934-.2,2.609-.4,4.543Z" transform="translate(0 -12.64)"/>
  <path id="Path_22" data-name="Path 22" d="M21.094,26.612l-.064,4.107h7.018a2.787,2.787,0,0,1,2.7,2.855v2.855H30.72v11.16a2.787,2.787,0,0,1-2.7,2.855h-2.7V37.459c0-1.179.209-1.031-.866-1.031H17.5v-.018H14.041A4.2,4.2,0,0,1,9.98,32.118V18.06A4.265,4.265,0,0,1,14.111,13.7h2.045c3.242,0,3.561,1.639,4.386,3.352l3.451,1.436c2.5,1.191,1.859,1.424,3.555-.8L29.756,14.8c1.081-1.823,5.351.08,3.521,3.143l-3.2,4.616c-1.33,1.921-3.1,2.192-5.246,1.252L21.1,22.425v4.187ZM61.528.209a5.822,5.822,0,0,0-5.653,5.973,5.661,5.661,0,1,0,11.305,0A5.826,5.826,0,0,0,61.528.209ZM59.175,23.634l.11,7.084H52.267a2.787,2.787,0,0,0-2.7,2.855v2.855h.029v11.16a2.787,2.787,0,0,0,2.7,2.855H55v-13.2c0-1.252.447-.816,1.784-.816h6.03v-.018h3.462a4.193,4.193,0,0,0,4.061-4.291V17.225A4.265,4.265,0,0,0,66.2,12.861H64.159c-4.253,0-3.579,3.094-5.461,5.04-1.859,1.921-1.394,2.142-3.933,2.142H49.293c-3.265,0-4.067,4.512.587,4.512H54.9c2.237,0,2.428.374,4.276-.921ZM16.028,0A5.822,5.822,0,0,1,21.68,5.973a5.822,5.822,0,0,1-5.653,5.973,5.822,5.822,0,0,1-5.653-5.973A5.819,5.819,0,0,1,16.028,0Z" transform="translate(-1.886)" fill="#ee830c"/>
</svg>
