<svg id="takeaway-food" xmlns="http://www.w3.org/2000/svg" width="27.709" height="35.408" viewBox="0 0 27.709 35.408">
  <path id="Path_8" data-name="Path 8" d="M20.539.064a1.046,1.046,0,0,1,.248-.023,2.568,2.568,0,0,1,2.593,1.743A.742.742,0,0,0,23.4,1.9c.3,1.467.787,3.149,1.308,4.959a68.491,68.491,0,0,1,2.23,9.446,48.186,48.186,0,0,1,.7,10.471,22.257,22.257,0,0,1-.66,4.216,8.813,8.813,0,0,0-.167.971c-.225,1.657-.455,3.383-2.484,3.44H3.755a3.276,3.276,0,0,1-1.516-.317,2.121,2.121,0,0,1-1.086-1.576v-.032A52.024,52.024,0,0,1,.121,26.642a33.725,33.725,0,0,1,.4-8.826A104.023,104.023,0,0,1,3.115,6.2c.432-1.622.864-3.2,1.19-4.61a1.233,1.233,0,0,1,.084-.239A2.216,2.216,0,0,1,6.5,0a1.317,1.317,0,0,1,.236.026L8.524.311a1.153,1.153,0,0,1,.314.1.622.622,0,0,1,.326,0c.974.213,1.441,1.011,1.625,2.763a59,59,0,0,1,.017,6.362l6.3.04a43.845,43.845,0,0,1-.239-5.368C17.027.893,18.087.5,20.539.064Z" transform="translate(0 0.004)"/>
  <path id="Path_9" data-name="Path 9" d="M11.869,8.7c-.2,1.236-.377,2.57-.547,3.919h1.17c.084-2.925.112-4.924,0-6.224-.026-.256-.058-.473-.089-.663q-.288,1.475-.519,2.962ZM22.49,4.628l1.3-.233c.47,0,1.233.184,1.4.807.8,3.976,2.714,8.768,3.533,14.379a46.379,46.379,0,0,1,.726,10.313,21.871,21.871,0,0,1-.657,3.89c-.326,1.288-.167,3.429-1.467,3.458H6.9c-.939-.017-1.331-.138-1.5-.9-1.219-6.319-1.539-8.863-.611-15.24C5.631,15.3,7.377,9.9,8.555,4.98A.98.98,0,0,1,9.5,4.349l1.827.311c-.524,2.429-.928,5.187-1.271,7.89-.026.818.256,1.34,1.086,1.325l11.4.069c.847-.107,1.153-.617,1.011-1.478A48.573,48.573,0,0,0,22.49,4.628Zm-1.026,8.051h.864a.605.605,0,0,1,0-.124h0c-.112-1.55-.248-3-.412-4.256-.13-.98-.288-1.884-.45-2.68a8.284,8.284,0,0,0-.216,1.743,43.441,43.441,0,0,0,.213,5.316Z" transform="translate(-3.024 -3.094)" fill="#fff"/>
  <path id="Path_10" data-name="Path 10" d="M66.368,33.1c0,.032-.02.049,0,.017S66.368,33.117,66.368,33.1Z" transform="translate(-47.239 -23.561)"/>
  <path id="Path_11" data-name="Path 11" d="M16.6,92.847V91.838a.118.118,0,0,1,.121-.118H34.6a.118.118,0,0,1,.121.118v1.009a.121.121,0,0,1-.121.121h-17.9a.118.118,0,0,1-.118-.121Z" transform="translate(-11.809 -65.29)"/>
  <path id="Path_12" data-name="Path 12" d="M28.3,48.689a1.4,1.4,0,0,1,1.392,1.4,1.366,1.366,0,0,1-.081.464,1.118,1.118,0,0,1-.115.245,8.185,8.185,0,0,1,2.092.614h0a7.7,7.7,0,0,1,3.513,3.17,9.817,9.817,0,0,1,1.248,5.011.4.4,0,0,1-.118.288h0a.4.4,0,0,1-.259.118H20.663a.4.4,0,0,1-.288-.118h0a.4.4,0,0,1-.109-.288.2.2,0,0,1,0-.04A9.8,9.8,0,0,1,21.5,54.581a7.734,7.734,0,0,1,4.631-3.573,8.027,8.027,0,0,1,.968-.219,1.193,1.193,0,0,1-.115-.245,1.389,1.389,0,0,1-.081-.464,1.415,1.415,0,0,1,.409-.988,1.4,1.4,0,0,1,.988-.412Z" transform="translate(-14.424 -34.652)"/>
  <path id="Path_13" data-name="Path 13" d="M23.06,66.18H37.528C37.168,55.957,23.423,55.96,23.06,66.18Z" transform="translate(-16.416 -41.652)" fill="#f25f29"/>
  <path id="Path_14" data-name="Path 14" d="M30.053,67.418a.4.4,0,0,1-.2.231.392.392,0,0,1-.308.029.4.4,0,0,1-.236-.2.4.4,0,0,1-.029-.308A6.17,6.17,0,0,1,29.84,65.9a5.5,5.5,0,0,1,.79-1.046,5.714,5.714,0,0,1,1.017-.815,6.786,6.786,0,0,1,1.222-.6.4.4,0,0,1,.308,0,.409.409,0,0,1,.213.225h0a.379.379,0,0,1-.225.5h0a6.106,6.106,0,0,0-1.095.568,4.754,4.754,0,0,0-.864.7,4.521,4.521,0,0,0-.68.89,5.261,5.261,0,0,0-.473,1.092h0Z" transform="translate(-20.832 -45.131)" fill="#fff"/>
</svg>
