<svg xmlns="http://www.w3.org/2000/svg" width="22.154" height="24.37" viewBox="0 0 22.154 24.37">
  <g id="Terms_Contitions" data-name="Terms &amp; Contitions" transform="translate(-3 -1.5)">
    <path id="Path_1654" data-name="Path 1654" d="M9,8.608A1.108,1.108,0,0,1,10.108,7.5H21.185a1.108,1.108,0,0,1,0,2.215H10.108A1.108,1.108,0,0,1,9,8.608Z" transform="translate(-1.569 -1.569)" fill="#f25f29"/>
    <path id="Path_1655" data-name="Path 1655" d="M9,14.608A1.108,1.108,0,0,1,10.108,13.5H21.185a1.108,1.108,0,0,1,0,2.215H10.108A1.108,1.108,0,0,1,9,14.608Z" transform="translate(-1.569 -3.138)" fill="#f25f29"/>
    <path id="Path_1656" data-name="Path 1656" d="M10.108,19.5a1.108,1.108,0,1,0,0,2.215H21.185a1.108,1.108,0,0,0,0-2.215Z" transform="translate(-1.569 -4.707)" fill="#f25f29"/>
    <path id="Path_1657" data-name="Path 1657" d="M9,26.608A1.108,1.108,0,0,1,10.108,25.5h4.431a1.108,1.108,0,0,1,0,2.215H10.108A1.108,1.108,0,0,1,9,26.608Z" transform="translate(-1.569 -6.277)" fill="#f25f29"/>
    <path id="Path_1658" data-name="Path 1658" d="M3,4.823A3.323,3.323,0,0,1,6.323,1.5H21.831a3.323,3.323,0,0,1,3.323,3.323V22.547a3.323,3.323,0,0,1-3.323,3.323H6.323A3.323,3.323,0,0,1,3,22.547ZM6.323,3.715H21.831a1.108,1.108,0,0,1,1.108,1.108V22.547a1.108,1.108,0,0,1-1.108,1.108H6.323a1.108,1.108,0,0,1-1.108-1.108V4.823A1.108,1.108,0,0,1,6.323,3.715Z" transform="translate(0 0)" fill="#f25f29"/>
  </g>
</svg>
