<svg xmlns="http://www.w3.org/2000/svg" width="16.524" height="27.048" viewBox="0 0 16.524 27.048">
  <path id="usb" d="M27.048,8.26a.354.354,0,0,1-.19.316L23.1,10.832a.373.373,0,0,1-.19.059.394.394,0,0,1-.19-.046.379.379,0,0,1-.19-.329v-1.5H12.468c1.067,1.67,1.708,4.507,2.935,4.507h1.126v-1.13a.371.371,0,0,1,.375-.375H20.66a.371.371,0,0,1,.375.375v3.757a.371.371,0,0,1-.375.375H16.9a.371.371,0,0,1-.375-.375V15.023H15.4c-3.179,0-3.419-6.008-5.258-6.008H5.916a3.008,3.008,0,1,1,0-1.505c1.649,0,1.851.4,3.145-2.547C10.752,1.206,11.511,1.5,13.653,1.5a2.256,2.256,0,1,1,0,1.509H12.4c-1.227,0-1.868,2.842-2.935,4.507H22.537v-1.5a.379.379,0,0,1,.19-.329A.354.354,0,0,1,23.1,5.7l3.757,2.256a.322.322,0,0,1,.19.3Z" transform="translate(0 27.048) rotate(-90)" fill="#ee830c"/>
</svg>
