<svg xmlns="http://www.w3.org/2000/svg" width="25.59" height="25.59" viewBox="0 0 25.59 25.59">
  <g id="user-avatar-filled-alt" transform="translate(-2.25 -2.25)">
    <path id="Path_1688" data-name="Path 1688" d="M15.045,2.25A12.795,12.795,0,1,0,27.84,15.045,12.795,12.795,0,0,0,15.045,2.25ZM22.356,23.2v-.556a4.761,4.761,0,0,0-4.57-4.854H12.3A4.752,4.752,0,0,0,7.742,22.64c0,.01-.009.02-.009.03V23.2A10.972,10.972,0,1,1,22.356,23.2Z" transform="translate(0 0)" fill="#f25f29"/>
    <path id="Path_1689" data-name="Path 1689" d="M16.945,7.875a4.57,4.57,0,1,0,4.57,4.57,4.57,4.57,0,0,0-4.57-4.57Z" transform="translate(-1.9 -1.055)" fill="#f25f29"/>
  </g>
</svg>
