<svg xmlns="http://www.w3.org/2000/svg" width="23.762" height="23.762" viewBox="0 0 23.762 23.762">
  <g id="Version_Details" data-name="Version Details" transform="translate(-1495.699 -525.617)">
    <path id="Version_Details-2" data-name="Version Details" d="M21.5,22.936H10.034A1.414,1.414,0,0,1,8.6,21.5V1.433A1.387,1.387,0,0,1,9.015.414,1.382,1.382,0,0,1,10.034,0H21.5a1.387,1.387,0,0,1,1.019.414,1.382,1.382,0,0,1,.414,1.019V21.5A1.414,1.414,0,0,1,21.5,22.936Zm0-21.5H10.034V21.5H21.5ZM4.3,18.635V4.3A1.414,1.414,0,0,1,5.734,2.867H7.167V4.3H5.734V18.635H7.167v1.433H5.734A1.414,1.414,0,0,1,4.3,18.635ZM0,15.768v-8.6A1.4,1.4,0,0,1,.414,6.16a1.366,1.366,0,0,1,1.019-.426H2.867V7.167H1.433v8.6H2.867V17.2H1.433a1.387,1.387,0,0,1-1.019-.414A1.382,1.382,0,0,1,0,15.768Z" transform="translate(1496.112 526.03)" fill="#f25f29"/>
    <path id="Version_Details_-_Outline" data-name="Version Details - Outline" d="M21.417,23.262H9.947A1.827,1.827,0,0,1,8.1,21.415V1.347A1.792,1.792,0,0,1,8.636.035,1.787,1.787,0,0,1,9.946-.5h11.47a1.792,1.792,0,0,1,1.311.535,1.788,1.788,0,0,1,.535,1.312V21.415a1.827,1.827,0,0,1-1.845,1.847ZM9.947.326A.977.977,0,0,0,9.22.619a.981.981,0,0,0-.293.728V21.415a1,1,0,0,0,1.02,1.02h11.47a1,1,0,0,0,1.019-1.02V1.347a1,1,0,0,0-1.02-1.02Zm11.881,21.5H9.534V.933H21.828ZM10.36,21H21V1.76H10.36Zm-2.867-.607H5.647A1.827,1.827,0,0,1,3.8,18.548V4.213A1.827,1.827,0,0,1,5.645,2.367H7.493v2.26H6.06V18.135H7.493ZM5.647,3.193a1,1,0,0,0-1.02,1.02V18.548a1,1,0,0,0,1.02,1.02h1.02v-.607H5.234V3.8H6.667V3.193ZM3.193,17.528H1.347a1.792,1.792,0,0,1-1.311-.535A1.788,1.788,0,0,1-.5,15.681V7.08a1.8,1.8,0,0,1,.531-1.3,1.771,1.771,0,0,1,1.315-.551H3.193v2.26H1.76v7.775H3.193ZM1.347,6.06a.949.949,0,0,0-.723.3.99.99,0,0,0-.3.72v8.6a.976.976,0,0,0,.293.727.98.98,0,0,0,.728.293h1.02v-.607H.933V6.667H2.367V6.06Z" transform="translate(1496.199 526.117)" fill="#f25f29"/>
  </g>
</svg>
